<svg xmlns="http://www.w3.org/2000/svg" xmlns:xlink="http://www.w3.org/1999/xlink" version="1.1" x="0px" y="0px" viewBox="0 0 256 256" enable-background="new 0 0 256 256" xml:space="preserve">
<metadata fill="#dd0303"> Svg Vector Icons : http://www.onlinewebfonts.com/icon </metadata>
<g><g><g><path fill="#dd0303" d="M215.7,104.4l14.6-29.6c0.9-1.9,0.8-4.1-0.2-5.9c-1-1.8-2.9-3-5-3.1l-33-2.1l-2.1-33c-0.1-2.1-1.3-3.9-3.1-5c-1.8-1-4-1.1-5.9-0.2l-29.6,14.7l-18.3-27.5c-2.3-3.4-8-3.4-10.3,0l-18.3,27.5L74.9,25.5c-1.9-0.9-4.1-0.9-5.9,0.2c-1.8,1-3,2.9-3.1,5l-2.1,33l-33,2.1c-2.1,0.1-3.9,1.3-5,3.1c-1,1.8-1.1,4-0.2,5.9l14.6,29.7l-27.5,18.4c-1.7,1.2-2.8,3.1-2.8,5.2s1,4,2.8,5.2l27.5,18.4l-14.6,29.6c-0.9,1.9-0.8,4.1,0.2,5.9c1,1.8,2.9,3,5,3.1l33,2.1l2.1,33c0.1,2.1,1.3,3.9,3.1,5c1.8,1,4,1.1,5.9,0.2l29.6-14.6l18.3,27.5c1.2,1.7,3.1,2.8,5.2,2.8s4-1,5.2-2.8l18.3-27.5l29.6,14.6c1.9,0.9,4.1,0.8,5.9-0.2c1.8-1,3-2.9,3.1-5l2.1-33l33-2.1c2.1-0.1,3.9-1.3,5-3.1c1-1.8,1.1-4,0.2-5.9l-14.6-29.6l27.5-18.4c1.7-1.2,2.8-3.1,2.8-5.2c0-2.1-1-4-2.8-5.2L215.7,104.4z"/></g><g/><g/><g/><g/><g/><g/><g/><g/><g/><g/><g/><g/><g/><g/><g/></g></g>
</svg>